<svg width="90" height="130" viewBox="0 0 90 130" fill="none" xmlns="http://www.w3.org/2000/svg">
<path d="M89.2808 35.6718C87.4708 25.7226 82.0462 16.7154 73.9746 10.2563C66.0242 3.68408 55.902 0.0484672 45.4198 0.000144429C41.5266 -0.00934357 37.6473 0.448677 33.872 1.36359C24.7804 3.557 16.6485 8.47301 10.6502 15.402C2.5037 24.7441 -0.881936 35.5405 0.194118 47.6549C0.712724 52.8657 1.9483 57.9872 3.86845 62.8851C6.54975 69.7823 10.0309 76.3668 14.2458 82.5136C18.1739 88.3263 22.5129 93.8723 27.2319 99.1122C31.7258 104.181 36.5432 108.976 41.6563 113.469C43.8136 115.352 46.3332 115.292 48.48 113.348C52.7872 109.371 56.8832 105.188 60.7523 100.814C67.8647 92.8656 74.3368 84.478 79.6908 75.3176C83.4596 68.8489 86.6091 62.1125 88.4672 54.8812C90.0839 48.5336 90.5301 42.1254 89.2808 35.6718Z" fill="#4A2C85"/>
<path d="M76.3892 115.135C79.7013 117.403 79.5753 119.079 75.9273 120.882C72.3947 122.629 68.5261 123.346 64.6681 123.912C53.1597 125.541 41.4789 125.711 29.9247 124.417C24.7334 123.866 19.5473 123.154 14.7707 120.932C11.0229 119.175 10.8339 118.069 13.6474 115.226C13.0805 114.645 12.3299 114.928 11.658 114.842C8.90317 115.221 6.30503 116.306 4.13614 117.983C2.03652 119.554 2.25698 121.68 4.49307 123.144C6.41658 124.41 8.54508 125.361 10.7919 125.957C17.1858 127.594 23.7248 128.652 30.3236 129.118C45.6246 130.355 60.831 130.012 75.8748 126.906C79.7853 126.093 83.8323 125.235 86.8453 122.205C87.7848 121.261 88.063 120.341 87.4436 119.286C85.8794 116.559 79.7853 114.327 76.3892 115.135Z" fill="#6BD111"/>
<path d="M25.0063 113.959C25.4262 113.691 26.0089 113.65 26.1191 113.045C24.093 112.913 19.9725 114.226 18.6865 115.453C17.7416 116.352 17.5579 117.195 18.7809 118.13C20.7493 119.645 23.0432 120.382 25.421 120.877C36.8762 123.225 48.6813 123.538 60.2536 121.801C63.9752 121.296 67.8279 120.791 71.0141 118.417C72.4313 117.352 72.4523 116.473 71.2766 115.362C69.9643 114.12 66.8779 113.085 64.7992 113.171C67.0878 115.453 66.8989 116.302 63.7494 117.539C62.8683 117.896 61.9569 118.18 61.0252 118.387C52.3433 120.281 43.5774 120.346 34.78 119.331C31.5099 118.953 28.2082 118.448 25.2478 116.897C23.7045 116.09 23.2794 115.049 25.0063 113.959Z" fill="#FFB715"/>
<path d="M47.047 15.0888L46.8895 79.5139C46.8902 79.65 46.9348 79.7826 47.0172 79.8932C47.0996 80.0039 47.2157 80.0872 47.3494 80.1315C47.4832 80.1759 47.628 80.1792 47.7638 80.1409C47.8995 80.1026 48.0196 80.0247 48.1073 79.9179L69.5024 53.6136C69.5933 53.497 69.643 53.3554 69.6441 53.2096V42.0647C69.6442 41.8932 69.5744 41.7285 69.4499 41.6058C69.3253 41.4831 69.1557 41.4122 68.9775 41.4083L57.1776 41.2164C57.0874 41.215 56.9978 41.231 56.9141 41.2635C56.8304 41.2959 56.7542 41.3442 56.6902 41.4053C56.6261 41.4665 56.5754 41.5394 56.541 41.6196C56.5066 41.6999 56.4893 41.786 56.49 41.8728V47.9326C56.49 48.1053 56.5614 48.271 56.6883 48.3932C56.8153 48.5154 56.9876 48.584 57.1671 48.584H61.3664C61.5464 48.5853 61.7187 48.6551 61.8455 48.7781C61.9723 48.901 62.0435 49.0672 62.0435 49.2405V50.5433C62.0446 50.6942 61.9907 50.8407 61.8913 50.9574L55.8496 58.1281C55.3247 58.7593 54.2749 58.4008 54.4744 57.6736L54.3327 26.5871C54.2728 26.4502 54.2592 26.2986 54.2939 26.1539C54.3286 26.0092 54.4098 25.8786 54.526 25.7808C54.6423 25.683 54.7875 25.6228 54.9413 25.609C55.095 25.5951 55.2494 25.6281 55.3825 25.7034L61.3401 28.2031C61.4575 28.2521 61.5578 28.3323 61.6294 28.4342C61.701 28.5362 61.7409 28.6557 61.7443 28.7787L62.0383 36.7928C62.0437 36.962 62.1175 37.1225 62.2439 37.2404C62.3703 37.3582 62.5394 37.4241 62.7154 37.424H68.988C69.0769 37.424 69.165 37.4071 69.2471 37.3744C69.3293 37.3417 69.4039 37.2937 69.4668 37.2332C69.5297 37.1727 69.5795 37.1009 69.6136 37.0218C69.6476 36.9428 69.6651 36.8581 69.6651 36.7726V24.4814C69.665 24.357 69.6278 24.2353 69.558 24.1306C69.4883 24.0259 69.3888 23.9426 69.2714 23.8906L48.0128 14.4929C47.909 14.4473 47.7949 14.4275 47.681 14.4352C47.5671 14.443 47.4571 14.4782 47.361 14.5375C47.2649 14.5968 47.1858 14.6783 47.1309 14.7746C47.0761 14.8709 47.0472 14.979 47.047 15.0888Z" fill="white"/>
<path d="M20.7966 24.7439V53.4468C20.7973 53.5935 20.849 53.7357 20.9436 53.8508L27.2424 61.5416C27.331 61.6468 27.4511 61.723 27.5864 61.7599C27.7218 61.7968 27.8656 61.7926 27.9984 61.7478C28.1311 61.7031 28.2462 61.6199 28.3279 61.5098C28.4097 61.3997 28.454 61.2679 28.4549 61.1326V39.0499C28.4543 38.9215 28.4932 38.7959 28.5665 38.6887C28.6399 38.5815 28.7446 38.4975 28.8674 38.4473C28.9902 38.3972 29.1257 38.383 29.2568 38.4067C29.3879 38.4303 29.5089 38.4907 29.6045 38.5803L31.7041 40.4992C31.8305 40.6176 32 40.6839 32.1765 40.6839C32.353 40.6839 32.5225 40.6176 32.6489 40.4992L34.7958 38.4793C34.8915 38.389 35.0127 38.3279 35.1443 38.3035C35.2758 38.2791 35.412 38.2925 35.5357 38.342C35.6594 38.3916 35.7652 38.4751 35.8399 38.5821C35.9146 38.6891 35.9549 38.8149 35.9558 38.9438V71.9189C35.9557 72.0658 36.0075 72.2082 36.1028 72.3229L42.4016 79.9733C42.4899 80.0782 42.6096 80.1543 42.7444 80.1913C42.8792 80.2284 43.0226 80.2246 43.1551 80.1804C43.2876 80.1363 43.4028 80.0539 43.4849 79.9446C43.5671 79.8353 43.6122 79.7042 43.6141 79.5694L43.7769 14.7251C43.7769 14.551 43.705 14.384 43.577 14.2609C43.449 14.1378 43.2755 14.0686 43.0945 14.0686H39.5199C39.3836 14.068 39.2504 14.1073 39.1379 14.1813C39.0254 14.2553 38.939 14.3604 38.89 14.4827L32.5912 29.7128C32.5492 29.8133 32.4821 29.9021 32.3959 29.9716C32.3096 30.041 32.2068 30.0889 32.0967 30.1108C31.9865 30.1328 31.8724 30.1283 31.7646 30.0976C31.6567 30.0669 31.5584 30.0111 31.4784 29.935L25.547 24.2389C25.4201 24.117 25.2485 24.0481 25.0693 24.047H21.4737C21.3809 24.0475 21.2892 24.0662 21.2041 24.102C21.1191 24.1378 21.0426 24.1899 20.9792 24.2551C20.9158 24.3204 20.8669 24.3974 20.8355 24.4814C20.8041 24.5654 20.7909 24.6547 20.7966 24.7439Z" fill="white"/>
</svg>
